<svg id="visual" viewBox="0 0 675 900" width="675" height="900" xmlns="http://www.w3.org/2000/svg" xmlns:xlink="http://www.w3.org/1999/xlink" version="1.1"><rect x="0" y="0" width="675" height="900" fill="#002233"></rect><path d="M0 642L18.8 644.8C37.7 647.7 75.3 653.3 112.8 664.7C150.3 676 187.7 693 225.2 683.2C262.7 673.3 300.3 636.7 337.8 636.8C375.3 637 412.7 674 450.2 676.8C487.7 679.7 525.3 648.3 562.8 646C600.3 643.7 637.7 670.3 656.3 683.7L675 697L675 901L656.3 901C637.7 901 600.3 901 562.8 901C525.3 901 487.7 901 450.2 901C412.7 901 375.3 901 337.8 901C300.3 901 262.7 901 225.2 901C187.7 901 150.3 901 112.8 901C75.3 901 37.7 901 18.8 901L0 901Z" fill="#0066FF" stroke-linecap="round" stroke-linejoin="miter"></path></svg>